<?xml version="1.0" encoding="utf-8"?>
<!-- Generator: Adobe Illustrator 16.0.0, SVG Export Plug-In . SVG Version: 6.00 Build 0)  -->
<!DOCTYPE svg PUBLIC "-//W3C//DTD SVG 1.1//EN" "http://www.w3.org/Graphics/SVG/1.1/DTD/svg11.dtd">
<svg version="1.1" id="Layer_1" xmlns="http://www.w3.org/2000/svg" xmlns:xlink="http://www.w3.org/1999/xlink" x="0px" y="0px"
	 width="1100.133px" height="872.899px" viewBox="0 0 1100.133 872.899" enable-background="new 0 0 1100.133 872.899"
	 xml:space="preserve">
<pattern  x="80.133" y="142.899" width="7.833" height="10" patternUnits="userSpaceOnUse" id="Unnamed_Pattern_4" viewBox="0 -12.5 7.833 10" overflow="visible">
	<g>
		<polygon fill="none" points="0,-12.5 7.833,-12.5 7.833,-2.5 0,-2.5 		"/>
		<path fill="#FFFFFF" d="M6.917-1.5c0,0.829-0.671,1.5-1.5,1.5c-0.828,0-1.5-0.671-1.5-1.5S4.588-3,5.417-3
			C6.245-3,6.917-2.329,6.917-1.5z"/>
		<path fill="#FFFFFF" d="M3-6.5C3-5.671,2.329-5,1.5-5S0-5.671,0-6.5S0.671-8,1.5-8S3-7.329,3-6.5z"/>
		<path fill="#FFFFFF" d="M6.917-11.5c0,0.829-0.671,1.5-1.5,1.5c-0.828,0-1.5-0.671-1.5-1.5s0.672-1.5,1.5-1.5
			C6.245-13,6.917-12.329,6.917-11.5z"/>
	</g>
</pattern>
<rect x="0.133" y="807.899" width="1100" height="65"/>
<g>
	<g>
		<g>
			<path fill="#FFFFFF" d="M367.913,834.023h4.277c3.361,0,6.127,0.884,8.307,2.626c2.192,1.759,3.286,4.262,3.286,7.526
				c0,3.349-1.084,5.914-3.257,7.693c-2.179,1.785-4.979,2.664-8.418,2.664h-4.194V834.023z M370.489,852.201h0.906
				c1.332,0,2.594-0.13,3.782-0.395c1.188-0.267,2.223-0.704,3.115-1.332c0.88-0.639,1.59-1.452,2.121-2.453
				c0.527-1.008,0.793-2.251,0.793-3.738c0-1.47-0.259-2.727-0.782-3.768c-0.52-1.048-1.24-1.861-2.182-2.444
				c-0.924-0.591-1.954-1.029-3.078-1.298c-1.129-0.284-2.383-0.415-3.77-0.415h-0.906V852.201z"/>
			<path fill="#FFFFFF" d="M387.568,848.582c0.035,1.136,0.405,2.129,1.093,2.969c0.716,0.835,1.635,1.243,2.766,1.243
				c0.897,0,1.629-0.206,2.209-0.613c0.575-0.417,1.12-1.032,1.63-1.857l2.086,1.172c-0.604,1.086-1.437,1.929-2.488,2.563
				c-1.051,0.61-2.203,0.911-3.463,0.911c-1.922,0-3.456-0.627-4.605-1.901c-1.133-1.304-1.704-2.885-1.704-4.793
				c0-1.997,0.544-3.655,1.625-4.943c1.06-1.277,2.602-1.897,4.633-1.897c1.977,0,3.458,0.62,4.468,1.897
				c1.02,1.264,1.535,2.896,1.535,4.872v0.379H387.568z M394.885,846.737c-0.154-0.984-0.519-1.769-1.139-2.331
				c-0.614-0.571-1.412-0.862-2.396-0.862c-0.472,0-0.919,0.064-1.328,0.226c-0.416,0.168-0.774,0.395-1.097,0.672
				c-0.314,0.294-0.583,0.634-0.8,1.022c-0.211,0.403-0.348,0.813-0.411,1.273H394.885z"/>
			<path fill="#FFFFFF" d="M404.618,844.721c-0.374-0.753-0.917-1.123-1.646-1.123c-0.345,0-0.66,0.123-0.932,0.366
				c-0.276,0.251-0.415,0.549-0.415,0.884c0,0.326,0.107,0.615,0.315,0.836c0.207,0.229,0.496,0.438,0.864,0.637
				c0.24,0.106,0.421,0.203,0.552,0.247c0.123,0.075,0.332,0.172,0.63,0.304c0.143,0.06,0.274,0.132,0.38,0.164
				c0.105,0.03,0.191,0.066,0.252,0.102c0.906,0.419,1.636,0.894,2.167,1.444c0.522,0.535,0.795,1.275,0.795,2.175
				c0,1.201-0.445,2.208-1.318,3.013c-0.857,0.81-1.896,1.199-3.096,1.199c-0.502,0-0.975-0.064-1.428-0.201
				c-0.451-0.127-0.877-0.323-1.278-0.569c-0.395-0.247-0.736-0.544-1.041-0.897c-0.302-0.363-0.534-0.759-0.7-1.178l2.108-0.949
				c0.604,1.086,1.38,1.62,2.338,1.62c0.387,0,0.737-0.097,1.057-0.31c0.335-0.208,0.581-0.466,0.733-0.784
				c0.152-0.332,0.19-0.664,0.096-1.049c-0.091-0.355-0.37-0.712-0.846-1.039l-2.422-1.279c-0.416-0.213-0.778-0.431-1.089-0.653
				c-0.309-0.224-0.567-0.45-0.765-0.689c-0.207-0.25-0.352-0.518-0.458-0.81c-0.095-0.308-0.148-0.65-0.148-1.054
				c0-1.036,0.363-1.909,1.101-2.618c0.732-0.718,1.618-1.075,2.682-1.075c1.61,0,2.777,0.727,3.506,2.225L404.618,844.721z"/>
			<path fill="#FFFFFF" d="M413.465,835.982c0,0.451-0.163,0.844-0.493,1.164c-0.329,0.334-0.733,0.491-1.202,0.491
				c-0.481,0-0.878-0.157-1.21-0.491c-0.329-0.32-0.491-0.713-0.491-1.164c0-0.48,0.162-0.881,0.491-1.216
				c0.332-0.337,0.729-0.49,1.21-0.49c0.468,0,0.873,0.153,1.202,0.49C413.302,835.101,413.465,835.501,413.465,835.982z
				 M413.007,854.533h-2.477v-12.727h2.477V854.533z"/>
			<path fill="#FFFFFF" d="M428.955,854.302c0,2.383-0.456,4.248-1.37,5.578c-0.921,1.302-2.547,1.951-4.882,1.951
				c-1.81,0-3.29-0.518-4.441-1.551c-1.132-1.029-1.723-2.433-1.75-4.216h2.458c0,1.145,0.357,2.021,1.054,2.659
				c0.715,0.616,1.642,0.933,2.792,0.933c1.408,0,2.371-0.405,2.893-1.235c0.52-0.82,0.776-1.96,0.776-3.453v-2.427h-0.057
				c-0.508,0.779-1.145,1.371-1.902,1.794c-0.759,0.427-1.573,0.633-2.448,0.633c-1.904,0-3.408-0.657-4.504-1.979
				c-1.089-1.33-1.629-2.954-1.629-4.899c0-1.84,0.547-3.389,1.66-4.672c1.117-1.329,2.569-1.984,4.367-1.984
				c1.872,0,3.373,0.854,4.457,2.535h0.057v-2.162h2.471V854.302z M422.467,852.793c1.29,0,2.305-0.442,3.03-1.326
				c0.748-0.912,1.128-2.014,1.128-3.293c0-1.273-0.38-2.351-1.128-3.243c-0.725-0.878-1.74-1.333-3.03-1.333
				c-1.231,0-2.218,0.455-2.97,1.37c-0.735,0.889-1.102,1.956-1.102,3.206c0,1.279,0.366,2.367,1.102,3.263
				C420.25,852.351,421.236,852.793,422.467,852.793z"/>
			<path fill="#FFFFFF" d="M434.627,843.513h0.057c0.355-0.682,0.892-1.183,1.585-1.545c0.7-0.371,1.453-0.535,2.28-0.535
				c0.837,0,1.542,0.116,2.14,0.373c0.576,0.247,1.053,0.608,1.404,1.086c0.36,0.477,0.615,1.045,0.771,1.727
				c0.155,0.676,0.23,1.459,0.23,2.319v7.595h-2.467v-7.289c0-1.255-0.184-2.169-0.543-2.745c-0.37-0.602-1.128-0.9-2.276-0.9
				c-0.423,0-0.782,0.043-1.067,0.123c-0.299,0.075-0.554,0.193-0.771,0.349c-0.221,0.156-0.401,0.336-0.551,0.531
				c-0.139,0.203-0.284,0.419-0.408,0.664c-0.055,0.115-0.105,0.289-0.156,0.487c-0.039,0.194-0.08,0.401-0.116,0.604
				c-0.039,0.212-0.071,0.417-0.085,0.634c-0.019,0.215-0.028,0.376-0.028,0.5v1.188v5.854h-2.466v-12.727h2.466V843.513z"/>
			<path fill="#FFFFFF" d="M454.229,830.921h2.463v12.998h0.054c1.13-1.668,2.621-2.486,4.468-2.486
				c1.786,0,3.242,0.655,4.361,1.984c1.112,1.283,1.668,2.832,1.668,4.672c0,1.945-0.553,3.569-1.642,4.899
				c-1.102,1.322-2.602,1.979-4.496,1.979c-0.875,0-1.696-0.206-2.458-0.633c-0.754-0.423-1.39-1.015-1.902-1.794h-0.054v1.991
				h-2.463V830.921z M460.615,852.793c1.295,0,2.305-0.442,3.038-1.326c0.748-0.912,1.121-2.014,1.121-3.293
				c0-1.273-0.373-2.351-1.121-3.243c-0.733-0.878-1.743-1.333-3.038-1.333c-1.225,0-2.217,0.455-2.964,1.37
				c-0.73,0.889-1.101,1.956-1.101,3.206c0,1.279,0.371,2.367,1.101,3.263C458.397,852.351,459.39,852.793,460.615,852.793z"/>
			<path fill="#FFFFFF" d="M467.597,841.806h2.879l4.328,8.074l4.035-8.074h2.768l-10.395,20.025h-2.795l5.054-9.473
				L467.597,841.806z"/>
			<path fill="#FFFFFF" d="M494.048,849.385l-2.355,5.147h-2.77l9.866-21.377l9.873,21.377h-2.766l-2.363-5.147H494.048z
				 M498.789,838.754l-3.671,8.312h7.344L498.789,838.754z"/>
			<path fill="#FFFFFF" d="M512.682,854.533h-2.467v-23.611h2.467V854.533z"/>
			<path fill="#FFFFFF" d="M518.763,854.533h-2.459v-23.611h2.459V854.533z"/>
			<path fill="#FFFFFF" d="M528.14,844.804v2.03h-5.992v-2.03H528.14z"/>
			<path fill="#FFFFFF" d="M537.74,833.395c-0.77-0.355-1.322-0.507-1.645-0.507c-0.528,0-0.917,0.146-1.152,0.496
				c-0.242,0.334-0.396,0.744-0.492,1.231c-0.05,0.364-0.084,0.65-0.102,0.865c-0.009,0.196-0.016,0.497-0.016,0.85v5.476h3.406
				v2.284h-3.406v10.442h-2.459V844.09h-1.126v-2.284h1.126v-6.204c0-3.341,1.375-5.01,4.136-5.01c0.606,0,1.175,0.106,1.73,0.329
				V833.395z"/>
			<path fill="#FFFFFF" d="M541.548,843.875h0.071c0.321-0.763,0.774-1.367,1.383-1.792c0.604-0.451,1.318-0.65,2.131-0.65
				c0.678,0,1.354,0.199,2.031,0.616l-1.124,2.233c-0.394-0.346-0.907-0.514-1.506-0.514c-1.257,0-2.101,0.51-2.52,1.514
				c-0.185,0.481-0.313,0.96-0.377,1.41c-0.056,0.458-0.089,0.986-0.089,1.581v6.259h-2.462v-12.727h2.462V843.875z"/>
			<path fill="#FFFFFF" d="M550.014,848.582c0.038,1.136,0.396,2.129,1.093,2.969c0.722,0.835,1.635,1.243,2.774,1.243
				c0.898,0,1.631-0.206,2.208-0.613c0.573-0.417,1.116-1.032,1.632-1.857l2.08,1.172c-0.603,1.086-1.426,1.929-2.484,2.563
				c-1.047,0.61-2.199,0.911-3.468,0.911c-1.907,0-3.45-0.627-4.601-1.901c-1.126-1.304-1.7-2.885-1.7-4.793
				c0-1.997,0.538-3.655,1.625-4.943c1.051-1.277,2.593-1.897,4.621-1.897c1.985,0,3.475,0.62,4.479,1.897
				c1.027,1.264,1.528,2.896,1.528,4.872v0.379H550.014z M557.333,846.737c-0.148-0.984-0.524-1.769-1.14-2.331
				c-0.613-0.571-1.411-0.862-2.4-0.862c-0.469,0-0.919,0.064-1.319,0.226c-0.412,0.168-0.78,0.395-1.102,0.672
				c-0.319,0.294-0.585,0.634-0.796,1.022c-0.199,0.403-0.353,0.813-0.423,1.273H557.333z"/>
			<path fill="#FFFFFF" d="M563.39,848.582c0.039,1.136,0.406,2.129,1.1,2.969c0.71,0.835,1.627,1.243,2.76,1.243
				c0.903,0,1.637-0.206,2.212-0.613c0.575-0.417,1.127-1.032,1.631-1.857l2.076,1.172c-0.599,1.086-1.423,1.929-2.47,2.563
				c-1.05,0.61-2.214,0.911-3.476,0.911c-1.912,0-3.448-0.627-4.601-1.901c-1.13-1.304-1.698-2.885-1.698-4.793
				c0-1.997,0.534-3.655,1.618-4.943c1.059-1.277,2.601-1.897,4.642-1.897c1.965,0,3.455,0.62,4.457,1.897
				c1.026,1.264,1.527,2.896,1.527,4.872v0.379H563.39z M570.716,846.737c-0.146-0.984-0.538-1.769-1.143-2.331
				c-0.617-0.571-1.419-0.862-2.39-0.862c-0.487,0-0.928,0.064-1.336,0.226c-0.415,0.168-0.786,0.395-1.099,0.672
				c-0.321,0.294-0.595,0.634-0.793,1.022c-0.213,0.403-0.355,0.813-0.427,1.273H570.716z"/>
			<path fill="#FFFFFF" d="M581.149,844.804v2.03h-5.993v-2.03H581.149z"/>
			<path fill="#FFFFFF" d="M593.95,852.542h-0.044c-0.52,0.779-1.149,1.371-1.914,1.794c-0.757,0.427-1.574,0.633-2.446,0.633
				c-1.912,0-3.403-0.657-4.496-1.979c-1.1-1.33-1.646-2.954-1.646-4.899c0-1.84,0.55-3.389,1.668-4.672
				c1.119-1.329,2.563-1.984,4.365-1.984c1.845,0,3.33,0.818,4.47,2.486h0.044v-12.998h2.462v23.611h-2.462V852.542z
				 M589.917,852.793c1.309,0,2.326-0.442,3.053-1.326c0.744-0.912,1.123-2.014,1.123-3.293c0-1.273-0.379-2.351-1.123-3.243
				c-0.727-0.878-1.744-1.333-3.053-1.333c-1.216,0-2.203,0.455-2.952,1.37c-0.731,0.889-1.101,1.956-1.101,3.206
				c0,1.279,0.369,2.367,1.101,3.263C587.714,852.351,588.702,852.793,589.917,852.793z"/>
			<path fill="#FFFFFF" d="M600.444,843.378c1.336-1.295,2.966-1.945,4.887-1.945c1.912,0,3.543,0.65,4.846,1.945
				c1.336,1.31,2.004,2.921,2.004,4.824c0,1.905-0.668,3.508-2.004,4.815c-1.303,1.31-2.934,1.95-4.846,1.95
				c-1.921,0-3.551-0.641-4.887-1.95c-1.306-1.308-1.962-2.91-1.962-4.815C598.482,846.299,599.138,844.688,600.444,843.378z
				 M600.935,848.203c0,1.179,0.438,2.221,1.296,3.128c0.84,0.87,1.873,1.302,3.1,1.302c1.192,0,2.235-0.432,3.092-1.302
				c0.868-0.907,1.297-1.949,1.297-3.128c0-1.199-0.429-2.242-1.297-3.128c-0.856-0.877-1.899-1.306-3.092-1.306
				c-1.227,0-2.26,0.429-3.1,1.306C601.373,845.96,600.935,847.003,600.935,848.203z"/>
			<path fill="#FFFFFF" d="M618.813,849.914l3.779-8.816l3.759,8.816l3.724-8.107h2.803l-6.526,13.162l-3.759-8.51l-3.779,8.51
				l-6.52-13.162h2.794L618.813,849.914z"/>
			<path fill="#FFFFFF" d="M636.57,843.513h0.053c0.363-0.682,0.9-1.183,1.6-1.545c0.684-0.371,1.454-0.535,2.27-0.535
				c0.845,0,1.557,0.116,2.134,0.373c0.586,0.247,1.059,0.608,1.407,1.086c0.376,0.477,0.625,1.045,0.78,1.727
				c0.157,0.676,0.225,1.459,0.225,2.319v7.595h-2.463v-7.289c0-1.255-0.174-2.169-0.541-2.745c-0.378-0.602-1.129-0.9-2.283-0.9
				c-0.42,0-0.772,0.043-1.075,0.123c-0.279,0.075-0.54,0.193-0.758,0.349c-0.219,0.156-0.409,0.336-0.554,0.531
				c-0.149,0.203-0.275,0.419-0.416,0.664c-0.044,0.115-0.1,0.289-0.139,0.487c-0.048,0.194-0.085,0.401-0.134,0.604
				c-0.027,0.212-0.053,0.417-0.081,0.634c-0.009,0.215-0.024,0.376-0.024,0.5v1.188v5.854h-2.469v-12.727h2.469V843.513z"/>
			<path fill="#FFFFFF" d="M651.015,854.533h-2.465v-23.611h2.465V854.533z"/>
			<path fill="#FFFFFF" d="M655.347,843.378c1.337-1.295,2.965-1.945,4.882-1.945c1.907,0,3.537,0.65,4.85,1.945
				c1.328,1.31,1.995,2.921,1.995,4.824c0,1.905-0.667,3.508-1.995,4.815c-1.313,1.31-2.942,1.95-4.85,1.95
				c-1.917,0-3.545-0.641-4.882-1.95c-1.319-1.308-1.976-2.91-1.976-4.815C653.372,846.299,654.028,844.688,655.347,843.378z
				 M655.843,848.203c0,1.179,0.431,2.221,1.286,3.128c0.839,0.87,1.871,1.302,3.1,1.302c1.211,0,2.235-0.432,3.088-1.302
				c0.867-0.907,1.302-1.949,1.302-3.128c0-1.199-0.435-2.242-1.302-3.128c-0.853-0.877-1.877-1.306-3.088-1.306
				c-1.229,0-2.261,0.429-3.1,1.306C656.274,845.96,655.843,847.003,655.843,848.203z"/>
			<path fill="#FFFFFF" d="M681.359,854.533h-2.468v-1.991h-0.054c-1.091,1.626-2.547,2.427-4.357,2.427
				c-1.884,0-3.382-0.657-4.503-1.979c-1.092-1.33-1.627-2.954-1.627-4.899c0-1.84,0.553-3.389,1.662-4.672
				c1.119-1.329,2.58-1.984,4.384-1.984c1.831,0,3.321,0.818,4.441,2.486h0.054v-2.113h2.468V854.533z M674.865,852.793
				c1.292,0,2.312-0.442,3.05-1.326c0.738-0.912,1.11-2.014,1.11-3.293c0-1.273-0.372-2.351-1.11-3.243
				c-0.738-0.878-1.758-1.333-3.05-1.333c-1.222,0-2.219,0.455-2.96,1.37c-0.733,0.889-1.097,1.956-1.097,3.206
				c0,1.279,0.363,2.367,1.097,3.263C672.646,852.351,673.643,852.793,674.865,852.793z"/>
			<path fill="#FFFFFF" d="M694.135,852.542h-0.061c-0.512,0.779-1.149,1.371-1.906,1.794c-0.751,0.427-1.574,0.633-2.45,0.633
				c-1.904,0-3.397-0.657-4.496-1.979c-1.098-1.33-1.64-2.954-1.64-4.899c0-1.84,0.552-3.389,1.676-4.672
				c1.11-1.329,2.556-1.984,4.345-1.984c1.85,0,3.334,0.818,4.472,2.486h0.061v-12.998h2.462v23.611h-2.462V852.542z
				 M690.107,852.793c1.296,0,2.308-0.442,3.037-1.326c0.751-0.912,1.119-2.014,1.119-3.293c0-1.273-0.368-2.351-1.119-3.243
				c-0.729-0.878-1.741-1.333-3.037-1.333c-1.23,0-2.21,0.455-2.97,1.37c-0.721,0.889-1.086,1.956-1.086,3.206
				c0,1.279,0.365,2.367,1.086,3.263C687.897,852.351,688.876,852.793,690.107,852.793z"/>
			<path fill="#FFFFFF" d="M703.667,853.396c0,0.436-0.145,0.814-0.458,1.116c-0.313,0.303-0.694,0.456-1.133,0.456
				c-0.428,0-0.822-0.153-1.126-0.456c-0.302-0.302-0.468-0.681-0.468-1.116c0-0.417,0.166-0.791,0.468-1.113
				c0.304-0.301,0.698-0.459,1.126-0.459c0.438,0,0.819,0.158,1.133,0.459C703.523,852.605,703.667,852.979,703.667,853.396z"/>
			<path fill="#FFFFFF" d="M717.154,845.427c-1.02-1.145-2.249-1.724-3.675-1.724c-1.189,0-2.191,0.46-3.035,1.347
				c-0.825,0.896-1.234,1.953-1.234,3.124c0,1.329,0.409,2.395,1.234,3.231c0.854,0.854,1.917,1.291,3.193,1.291
				c1.319,0,2.497-0.574,3.517-1.698v3.132c-1.058,0.567-2.235,0.838-3.53,0.838c-1.899,0-3.531-0.633-4.882-1.933
				c-1.335-1.272-1.998-2.854-1.998-4.762c0-1.953,0.663-3.586,1.998-4.896c1.336-1.295,2.998-1.945,5.011-1.945
				c1.322,0,2.46,0.271,3.401,0.835V845.427z"/>
			<path fill="#FFFFFF" d="M720.64,843.378c1.335-1.295,2.96-1.945,4.878-1.945c1.924,0,3.541,0.65,4.857,1.945
				c1.325,1.31,1.985,2.921,1.985,4.824c0,1.905-0.66,3.508-1.985,4.815c-1.316,1.31-2.934,1.95-4.857,1.95
				c-1.918,0-3.543-0.641-4.878-1.95c-1.315-1.308-1.98-2.91-1.98-4.815C718.66,846.299,719.325,844.688,720.64,843.378z
				 M721.132,848.203c0,1.179,0.415,2.221,1.285,3.128c0.841,0.87,1.872,1.302,3.101,1.302c1.203,0,2.24-0.432,3.098-1.302
				c0.853-0.907,1.284-1.949,1.284-3.128c0-1.199-0.432-2.242-1.284-3.128c-0.857-0.877-1.895-1.306-3.098-1.306
				c-1.229,0-2.26,0.429-3.101,1.306C721.547,845.96,721.132,847.003,721.132,848.203z"/>
			<path fill="#FFFFFF" d="M737,843.417h0.062c0.354-0.594,0.84-1.063,1.46-1.447c0.608-0.355,1.256-0.537,1.934-0.537
				c1.6,0,2.832,0.742,3.698,2.245c0.397-0.687,0.958-1.238,1.66-1.643c0.692-0.408,1.475-0.603,2.285-0.603
				c2.842,0,4.249,1.822,4.249,5.491v7.608h-2.463v-7.208c0-0.321-0.018-0.658-0.044-0.969c-0.032-0.315-0.075-0.619-0.152-0.929
				c-0.076-0.291-0.182-0.559-0.337-0.826c-0.141-0.245-0.341-0.473-0.592-0.682c-0.325-0.216-0.751-0.321-1.262-0.321
				c-0.518,0-0.955,0.105-1.309,0.321c-0.352,0.209-0.625,0.466-0.812,0.758c-0.207,0.291-0.354,0.688-0.461,1.128
				c-0.098,0.444-0.177,0.861-0.205,1.23c-0.019,0.355-0.037,0.776-0.037,1.238v6.259h-2.475v-6.741
				c0-0.437-0.001-0.788-0.025-1.079c-0.02-0.306-0.07-0.661-0.162-1.107c-0.089-0.469-0.207-0.801-0.355-1.028
				c-0.151-0.248-0.372-0.479-0.683-0.68c-0.313-0.196-0.688-0.299-1.125-0.299c-1.261,0-2.073,0.55-2.435,1.638
				c-0.168,0.505-0.278,0.991-0.339,1.431c-0.045,0.459-0.076,0.997-0.076,1.607v6.259h-2.462v-12.727H737V843.417z"/>
		</g>
		<g>
			<g>
				<path fill="#FFFFFF" d="M310.421,847.036c11.636,0,23.271,0,34.908,0c1.06,0,1.06-1.636,0-1.636c-11.636,0-23.271,0-34.908,0
					C309.364,845.4,309.364,847.036,310.421,847.036L310.421,847.036z"/>
			</g>
			<g>
				<path fill="#FFFFFF" d="M774.934,847.036c11.632,0,23.27,0,34.902,0c1.068,0,1.068-1.636,0-1.636c-11.633,0-23.271,0-34.902,0
					C773.883,845.4,773.883,847.036,774.934,847.036L774.934,847.036z"/>
			</g>
		</g>
	</g>
</g>
<g>
	<rect x="1.201" fill="#F9D09E" width="1098.932" height="807.899"/>
	<g>
		<g>
			<defs>
				<rect id="SVGID_1_" x="1.201" width="1098.932" height="807.899"/>
			</defs>
			<clipPath id="SVGID_2_">
				<use xlink:href="#SVGID_1_"  overflow="visible"/>
			</clipPath>
			<g clip-path="url(#SVGID_2_)">
				<pattern  id="SVGID_3_" xlink:href="#Unnamed_Pattern_4" patternTransform="matrix(1.4652 0 0 1.6158 3805.5933 4375.7734)">
				</pattern>
				<path opacity="0.49" fill="url(#SVGID_3_)" d="M52.422,447.854c55.395-10.229,107.482-40.691,146.693-84.96
					c31.92-36.041,56.146-81.194,94.128-109.194c88.961-65.583,198.13-11.535,295.383-21.686
					C848.581,204.89,933.165-44.572,933.165-44.572L-24.658-70.159c0,0-5.963,33.349-14.781,82.655l23.2,438.662
					C6.633,453.148,29.871,452.015,52.422,447.854z"/>
				<linearGradient id="SVGID_4_" gradientUnits="userSpaceOnUse" x1="430.478" y1="277.98" x2="369.5782" y2="154.6578">
					<stop  offset="0" style="stop-color:#FF8A00"/>
					<stop  offset="1" style="stop-color:#FFBC00"/>
				</linearGradient>
				<path fill="url(#SVGID_4_)" d="M134.154,373.476c43.294-49.439,68.353-117.712,123.187-152.653
					c39.2-24.976,87.525-28.532,133.46-26.431c45.934,2.1,94.865,5.05,140.747,2.717C777.947,184.596,838.524-78.555,838.524-78.555
					h-906.06v530.879C6.459,459.047,83.932,430.829,134.154,373.476z"/>
				<linearGradient id="SVGID_5_" gradientUnits="userSpaceOnUse" x1="319.9751" y1="153.8877" x2="153.4087" y2="-89.2089">
					<stop  offset="0" style="stop-color:#FF8A00"/>
					<stop  offset="1" style="stop-color:#FFBC00"/>
				</linearGradient>
				<path fill="url(#SVGID_5_)" d="M-62.771,364.413c32.132,6.577,67.453,2.233,98.163-9.902
					c46.936-18.542,85.06-52.607,119.879-87.845c34.821-35.232,67.883-72.709,109.123-100.974
					c49.389-33.849,109.608-53.168,170.441-54.68c38.3-0.947,76.928,4.948,114.77-0.756c59.712-8.995,123.069-67.581,146.993-120.44
					l-9.74-69.608H-62.771V364.413z"/>
				
					<pattern  id="SVGID_6_" xlink:href="#Unnamed_Pattern_4" patternTransform="matrix(-1.0537 1.2595 -1.4848 -1.0978 -26800.582 -5088.335)">
				</pattern>
				<path opacity="0.49" fill="url(#SVGID_6_)" d="M986.646,23.494c-30.434,54.565-39.9,120.038-27.417,183.821
					c10.166,51.924,34.234,103.424,32.654,155.101C988.176,483.443,860,540.569,799.392,631.059
					c-162.02,241.889,6.398,484.081,6.398,484.081l712.321-805.968c0,0-26.359-27.787-65.331-68.864l-419.795-278.08
					C1014.714-19.463,999.042,1.283,986.646,23.494z"/>
				
					<linearGradient id="SVGID_7_" gradientUnits="userSpaceOnUse" x1="1094.8364" y1="-1401.5537" x2="1023.1719" y2="-1546.6746" gradientTransform="matrix(-0.6182 0.786 -0.786 -0.6182 443.3514 -1264.908)">
					<stop  offset="0" style="stop-color:#FF8A00"/>
					<stop  offset="1" style="stop-color:#FFBC00"/>
				</linearGradient>
				<path fill="url(#SVGID_7_)" d="M996.221,144.285c14.3,70.806,59.017,138.729,51.693,209.604
					c-5.233,50.665-36.721,94.621-71.687,132.677c-34.962,38.062-72.86,78.116-103.717,119.143
					c-165.688,220.307,32.569,451.165,32.569,451.165l651.582-778.858L1068.808-82.661
					C1009.415-23.62,979.633,62.146,996.221,144.285z"/>
				
					<linearGradient id="SVGID_8_" gradientUnits="userSpaceOnUse" x1="962.2358" y1="-1523.2183" x2="767.5796" y2="-1807.3108" gradientTransform="matrix(-0.6182 0.786 -0.786 -0.6182 443.3514 -1264.908)">
					<stop  offset="0" style="stop-color:#FF8A00"/>
					<stop  offset="1" style="stop-color:#FFBC00"/>
				</linearGradient>
				<path fill="url(#SVGID_8_)" d="M1127.963-38.925c-29.153,23.153-50.558,56.469-61.494,91.109
					c-16.715,52.946-12.828,108.858-5.485,162.729c7.337,53.871,18.002,107.75,14.316,162.407
					c-4.41,65.45-29.963,130.338-72.322,183.656c-26.672,33.571-59.868,62.77-81.841,99.175
					c-34.671,57.439-26.395,151.708,4.976,208.182l70.969,38.921l539.085-644.388L1127.963-38.925z"/>
				<linearGradient id="SVGID_9_" gradientUnits="userSpaceOnUse" x1="165.2124" y1="-41.1387" x2="224.1694" y2="67.2644">
					<stop  offset="0" style="stop-color:#FF8A00"/>
					<stop  offset="1" style="stop-color:#FFBC00"/>
				</linearGradient>
				<path fill="url(#SVGID_9_)" d="M-67.536,161.293c18.572-26.64,52.964-41.556,85.057-43.765
					c31.764-2.186,63.356,4.554,94.946,8.494c67.823,8.457,140.619,2.855,197.792-34.221
					c60.94-39.522,99.693-111.545,168.525-135.195c5.212-1.792,11.192-3.156,16.445-5.496c2.362-1.052,4.578-2.3,6.507-3.872
					c-1.945-1.973-1.947-0.973-4.022-1.745c-10.558-3.929-30.496,0-41.65,0h-523.6V161.293z"/>
				<linearGradient id="SVGID_10_" gradientUnits="userSpaceOnUse" x1="-70.3042" y1="8.7603" x2="489.9614" y2="8.7603">
					<stop  offset="0" style="stop-color:#FF8A00"/>
					<stop  offset="1" style="stop-color:#FFBC00"/>
				</linearGradient>
				<path fill="url(#SVGID_10_)" d="M-70.304,112.108c19.48-19.852,48.611-31.023,76.052-32.916
					c31.764-2.183,63.354,4.556,94.945,8.496c67.824,8.458,140.62,2.857,197.792-34.223
					c60.94-39.519,99.694-111.542,168.522-135.193c5.214-1.789,11.194-3.155,16.449-5.498c2.36-1.049,4.573-2.3,6.505-3.869
					c-1.944-1.973-1.948-0.973-4.022-1.745c-10.557-3.932-30.496,0-41.652,0H-70.304V112.108z"/>
			</g>
		</g>
		<g>
			
				<radialGradient id="SVGID_11_" cx="163.689" cy="677.5825" r="103.6309" gradientTransform="matrix(1.001 0 0 0.996 -0.0013 1.983643e-004)" gradientUnits="userSpaceOnUse">
				<stop  offset="0.198" style="stop-color:#4D4D4D"/>
				<stop  offset="0.5813" style="stop-color:#A9A9A9"/>
				<stop  offset="0.8656" style="stop-color:#E7E7E7"/>
				<stop  offset="1" style="stop-color:#FFFFFF"/>
			</radialGradient>
			<path fill="url(#SVGID_11_)" d="M267.578,674.89c0,57.007-46.44,103.222-103.73,103.222S60.116,731.897,60.116,674.89
				c0-57.005,46.441-103.219,103.731-103.219S267.578,617.885,267.578,674.89z"/>
			<linearGradient id="SVGID_12_" gradientUnits="userSpaceOnUse" x1="164.2471" y1="703.4751" x2="164.2471" y2="577.6323">
				<stop  offset="0" style="stop-color:#FF8A00"/>
				<stop  offset="1" style="stop-color:#FFBC00"/>
			</linearGradient>
			<path fill="url(#SVGID_12_)" d="M240.051,645.117c0,41.658-33.939,75.43-75.807,75.43c-41.862,0-75.801-33.771-75.801-75.43
				s33.938-75.43,75.801-75.43C206.112,569.687,240.051,603.458,240.051,645.117z"/>
		</g>
		<g>
			
				<radialGradient id="SVGID_13_" cx="925.8052" cy="692.2847" r="54.4272" gradientTransform="matrix(1.001 0 0 0.996 -0.0013 1.983643e-004)" gradientUnits="userSpaceOnUse">
				<stop  offset="0.198" style="stop-color:#4D4D4D"/>
				<stop  offset="0.5813" style="stop-color:#A9A9A9"/>
				<stop  offset="0.8656" style="stop-color:#E7E7E7"/>
				<stop  offset="1" style="stop-color:#FFFFFF"/>
			</radialGradient>
			<path fill="url(#SVGID_13_)" d="M981.186,689.539c0,29.938-24.392,54.206-54.478,54.206s-54.484-24.269-54.484-54.206
				c0-29.942,24.398-54.213,54.484-54.213S981.186,659.596,981.186,689.539z"/>
			<linearGradient id="SVGID_14_" gradientUnits="userSpaceOnUse" x1="926.9146" y1="704.5474" x2="926.9146" y2="638.4538">
				<stop  offset="0" style="stop-color:#FF8A00"/>
				<stop  offset="1" style="stop-color:#FFBC00"/>
			</linearGradient>
			<path fill="url(#SVGID_14_)" d="M966.728,673.898c0,21.88-17.824,39.615-39.817,39.615c-21.98,0-39.809-17.735-39.809-39.615
				c0-21.878,17.828-39.617,39.809-39.617C948.904,634.281,966.728,652.02,966.728,673.898z"/>
		</g>
		<g>
			
				<radialGradient id="SVGID_15_" cx="689.9829" cy="542.1782" r="173.2427" gradientTransform="matrix(1.001 0 0 0.996 -0.0013 1.983643e-004)" gradientUnits="userSpaceOnUse">
				<stop  offset="0.198" style="stop-color:#4D4D4D"/>
				<stop  offset="0.5813" style="stop-color:#A9A9A9"/>
				<stop  offset="0.8656" style="stop-color:#E7E7E7"/>
				<stop  offset="1" style="stop-color:#FFFFFF"/>
			</radialGradient>
			<path fill="url(#SVGID_15_)" d="M864.07,540.034c0,95.292-77.632,172.54-173.405,172.54c-95.765,0-173.428-77.248-173.428-172.54
				c0-95.31,77.663-172.559,173.428-172.559C786.438,367.475,864.07,444.724,864.07,540.034z"/>
			<linearGradient id="SVGID_16_" gradientUnits="userSpaceOnUse" x1="691.3267" y1="587.8101" x2="691.3267" y2="377.4331">
				<stop  offset="0" style="stop-color:#FF8A00"/>
				<stop  offset="1" style="stop-color:#FFBC00"/>
			</linearGradient>
			<path fill="url(#SVGID_16_)" d="M818.052,490.246c0,69.646-56.74,126.103-126.742,126.103
				c-69.971,0-126.709-56.456-126.709-126.103c0-69.636,56.738-126.096,126.709-126.096
				C761.312,364.149,818.052,420.609,818.052,490.246z"/>
		</g>
		<g>
			
				<radialGradient id="SVGID_17_" cx="370.002" cy="384.5186" r="65.5793" gradientTransform="matrix(1.001 0 0 0.996 -0.0013 1.983643e-004)" gradientUnits="userSpaceOnUse">
				<stop  offset="0.198" style="stop-color:#4D4D4D"/>
				<stop  offset="0.5813" style="stop-color:#A9A9A9"/>
				<stop  offset="0.8656" style="stop-color:#E7E7E7"/>
				<stop  offset="1" style="stop-color:#FFFFFF"/>
			</radialGradient>
			<path fill="url(#SVGID_17_)" d="M436.005,382.994c0,36.073-29.393,65.315-65.644,65.315c-36.256,0-65.644-29.242-65.644-65.315
				c0-36.077,29.388-65.32,65.644-65.32C406.612,317.674,436.005,346.917,436.005,382.994z"/>
			<linearGradient id="SVGID_18_" gradientUnits="userSpaceOnUse" x1="370.6123" y1="401.0796" x2="370.6123" y2="321.4458">
				<stop  offset="0" style="stop-color:#FF8A00"/>
				<stop  offset="1" style="stop-color:#FFBC00"/>
			</linearGradient>
			<path fill="url(#SVGID_18_)" d="M418.583,364.149c0,26.365-21.475,47.733-47.971,47.733c-26.495,0-47.97-21.368-47.97-47.733
				c0-26.362,21.475-47.731,47.97-47.731C397.107,316.418,418.583,337.788,418.583,364.149z"/>
		</g>
	</g>
</g>
</svg>
